<svg xmlns="http://www.w3.org/2000/svg" xmlns:xlink="http://www.w3.org/1999/xlink" preserveAspectRatio="xMidYMid" width="295" height="512" viewBox="0 0 295 512">
  <defs>
    <style>
      .cls-1 {
        fill: #000;
        fill-rule: evenodd;
      }
    </style>
  </defs>
  <path d="M257.500,512.000 L37.500,512.000 C16.822,512.000 0.000,495.178 0.000,474.500 L0.000,37.500 C0.000,16.822 16.822,0.000 37.500,0.000 L257.500,0.000 C278.178,0.000 295.000,16.822 295.000,37.500 L295.000,474.500 C295.000,495.178 278.178,512.000 257.500,512.000 ZM280.000,37.500 C280.000,25.093 269.907,15.000 257.500,15.000 L37.500,15.000 C25.093,15.000 15.000,25.093 15.000,37.500 L15.000,60.000 L280.000,60.000 L280.000,37.500 ZM280.000,422.000 L67.500,422.000 C63.358,422.000 60.000,418.642 60.000,414.500 C60.000,410.358 63.358,407.000 67.500,407.000 L280.000,407.000 L280.000,75.000 L15.000,75.000 L15.000,407.000 L37.500,407.000 C41.642,407.000 45.000,410.358 45.000,414.500 C45.000,418.642 41.642,422.000 37.500,422.000 L15.000,422.000 L15.000,474.500 C15.000,486.907 25.093,497.000 37.500,497.000 L257.500,497.000 C269.907,497.000 280.000,486.907 280.000,474.500 L280.000,422.000 ZM147.500,482.000 C135.093,482.000 125.000,471.907 125.000,459.500 C125.000,447.093 135.093,437.000 147.500,437.000 C159.907,437.000 170.000,447.093 170.000,459.500 C170.000,471.907 159.907,482.000 147.500,482.000 ZM147.500,452.000 C143.364,452.000 140.000,455.364 140.000,459.500 C140.000,463.636 143.364,467.000 147.500,467.000 C151.636,467.000 155.000,463.636 155.000,459.500 C155.000,455.364 151.636,452.000 147.500,452.000 ZM117.500,30.000 C121.642,30.000 125.000,33.358 125.000,37.500 C125.000,41.642 121.642,45.000 117.500,45.000 C113.358,45.000 110.000,41.642 110.000,37.500 C110.000,33.358 113.358,30.000 117.500,30.000 ZM147.500,30.000 L177.500,30.000 C181.642,30.000 185.000,33.358 185.000,37.500 C185.000,41.642 181.642,45.000 177.500,45.000 L147.500,45.000 C143.358,45.000 140.000,41.642 140.000,37.500 C140.000,33.358 143.358,30.000 147.500,30.000 Z" class="cls-1"/>
</svg>
